# xmcd
#
# Track frame offsets: 
#        150
#        18004
#        37790
#        56115
#        72611
#        94354
#
# Disc length: 1529 seconds
#
# Revision: 10
# Processed by: cddbd v1.5.2PL0 Copyright (c) Steve Scherf et al.
# Submitted via: ExactAudioCopyFreeDBPlugin 1.0
#
DISCID=4a05f706
DTITLE=Whitney Houston and Enrique Iglesias - Could I Have This Kiss For
DTITLE=ever
DYEAR=2000
DGENRE=R&B
TTITLE0=Could I Have This Kiss Forever (Metro Mix)
TTITLE1=Could I Have This Kiss Forever (Original Version)
TTITLE2=Could I Have This Kiss Forever (Tin Tin Out Mix)
TTITLE3=Could I Have This Kiss Forever (Tin Tin Out Remix - Edit)
TTITLE4=Whitney Houston and George Michael - If I Told You That (Johnny 
TTITLE4=Douglas Mix)
TTITLE5=I'm Every Woman (Clivilles and Cole Mix)
EXTD=YEAR: 2000
EXTT0=
EXTT1=
EXTT2=
EXTT3=
EXTT4=
EXTT5=
PLAYORDER=
